<svg width="408" height="434" viewBox="0 0 408 434" fill="none" xmlns="http://www.w3.org/2000/svg">
    <path d="M203.442 3.75057L0 0V15.4015L203.442 11.651L407.053 7.9004V7.50115L203.442 3.75057Z" fill="#41331f"/>
    <path d="M203.442 19.8297L0 16.3574V31.2024L203.442 27.7301L407.053 24.282V23.2899L203.442 19.8297Z" fill="#41331f"/>
    <path d="M203.442 35.9087L0 32.7268V47.0032L203.442 43.8091L407.053 40.6635V39.0665L203.442 35.9087Z" fill="#41331f"/>
    <path d="M203.442 51.9879L0 49.0842V62.804L203.442 59.8883L407.053 57.033V54.8432L203.442 51.9879Z" fill="#41331f"/>
    <path d="M203.442 68.0669L0 65.4415V78.6048L203.442 75.9673L407.053 73.4145V70.6318L203.442 68.0669Z" fill="#41331f"/>
    <path d="M203.442 84.146L0 81.7989V94.4057L203.442 92.0464L407.053 89.784V86.4206L203.442 84.146Z" fill="#41331f"/>
    <path d="M203.442 100.225L0 98.1682V110.194L203.442 108.125L407.053 106.165V102.197L203.442 100.225Z" fill="#41331f"/>
    <path d="M203.442 116.304L0 114.526V125.995L203.442 124.216L407.053 122.535V117.986L203.442 116.304Z" fill="#41331f"/>
    <path d="M203.442 132.395L0 130.895V141.796L203.442 140.296L407.053 138.904V133.774L203.442 132.395Z" fill="#41331f"/>
    <path d="M203.442 148.462L0 147.252V157.585L203.442 156.375L407.053 155.274V149.563L203.442 148.462Z" fill="#41331f"/>
    <path d="M203.442 164.553L0 163.622V173.373L203.442 172.454L407.053 171.643V165.352L203.442 164.553Z" fill="#41331f"/>
    <path d="M203.442 180.632L0 179.991V189.174L203.442 188.533L407.053 188.013V181.141L203.442 180.632Z" fill="#41331f"/>
    <path d="M203.442 196.712L0 196.349V204.963L203.442 204.612L407.053 204.382V196.929L203.442 196.712Z" fill="#41331f"/>
    <path d="M203.442 212.791L0 212.718V220.752L203.442 220.691L407.053 220.752V212.718L203.442 212.791Z" fill="#41331f"/>
    <path d="M203.442 228.87L0 229.087V236.552L203.442 236.77L407.053 237.121V228.507L203.442 228.87Z" fill="#41331f"/>
    <path d="M203.442 244.949L0 245.457V252.341L203.442 252.849L407.053 253.49V244.307L203.442 244.949Z" fill="#41331f"/>
    <path d="M203.442 261.028L0 261.826V268.13L203.442 268.928L407.053 269.86V260.096L203.442 261.028Z" fill="#41331f"/>
    <path d="M203.442 277.107L0 278.196V283.918L203.442 285.007L407.053 286.217V275.885L203.442 277.107Z" fill="#41331f"/>
    <path d="M203.442 293.186L0 294.565V299.707L203.442 301.086L407.053 302.587V291.686L203.442 293.186Z" fill="#41331f"/>
    <path d="M203.442 309.265L0 310.935V315.484L203.442 317.165L407.053 318.956V307.486L203.442 309.265Z" fill="#41331f"/>
    <path d="M203.442 325.344L0 327.316V331.272L203.442 333.244L407.053 335.313V323.275L203.442 325.344Z" fill="#41331f"/>
    <path d="M203.442 341.423L0 343.685V347.061L203.442 349.323L407.053 351.67V339.076L203.442 341.423Z" fill="#41331f"/>
    <path d="M203.442 357.502L0 360.067V362.85L203.442 365.403L407.053 368.04V354.865L203.442 357.502Z" fill="#41331f"/>
    <path d="M203.442 373.581L0 376.437V378.626L203.442 381.482L407.053 384.398V370.666L203.442 373.581Z" fill="#41331f"/>
    <path d="M203.442 389.66L0 392.818V394.415L203.442 397.561L407.053 400.755V386.466L203.442 389.66Z" fill="#41331f"/>
    <path d="M203.442 405.739L0 409.187V410.191L203.442 413.64L407.053 417.112V402.267L203.442 405.739Z" fill="#41331f"/>
    <path d="M203.442 421.818L0 425.569V425.98L203.442 429.719L407.053 433.481V418.068L203.442 421.818Z" fill="#41331f"/>
    </svg>